<svg height="480pt" viewBox="0 0 480 480" width="480pt" xmlns="http://www.w3.org/2000/svg"><path d="m384 416h-48v56h-56v-376h-32l112-88 112 88h-32v376h-56zm0 0" fill="#ed8c4a"/><path d="m336 416h48v56h-48zm0 0" fill="#aad3e2"/><path d="m144 416h-48v56h-56v-192h-32l112-88 112 88h-32v192h-56zm0 0" fill="#64c1e2"/><path d="m96 416h48v56h-48zm0 0" fill="#aad3e2"/><g fill="#0d2c33"><path d="m448 104h24c3.414062 0 6.449219-2.160156 7.558594-5.382812 1.113281-3.226563.066406-6.800782-2.613282-8.90625l-112-88c-2.90625-2.277344-6.984374-2.277344-9.890624 0l-112 88c-2.679688 2.105468-3.726563 5.679687-2.613282 8.90625 1.109375 3.222656 4.144532 5.382812 7.558594 5.382812h24v360h-64v-176h24c3.414062 0 6.449219-2.160156 7.558594-5.382812 1.113281-3.226563.066406-6.800782-2.613282-8.90625l-112-88c-2.90625-2.277344-6.984374-2.277344-9.890624 0l-112 88c-2.679688 2.105468-3.726563 5.679687-2.613282 8.90625 1.109375 3.222656 4.144532 5.382812 7.558594 5.382812h24v176h-32v16h480v-16h-32zm-312 320v40h-32v-40zm16 40v-40h16v-16h-96v16h16v40h-40v-184c0-4.414062-3.574219-8-8-8h-8.863281l88.863281-69.824219 88.863281 69.824219h-8.863281c-4.425781 0-8 3.585938-8 8v184zm224-40v40h-32v-40zm16 40v-40h16v-16h-96v16h16v40h-40v-368c0-4.414062-3.574219-8-8-8h-8.863281l88.863281-69.824219 88.863281 69.824219h-8.863281c-4.425781 0-8 3.585938-8 8v368zm0 0"/><path d="m304 88h16v16h-16zm0 0"/><path d="m336 88h16v16h-16zm0 0"/><path d="m368 88h16v16h-16zm0 0"/><path d="m336 56h16v16h-16zm0 0"/><path d="m368 56h16v16h-16zm0 0"/><path d="m400 88h16v16h-16zm0 0"/><path d="m304 120h16v16h-16zm0 0"/><path d="m336 120h16v16h-16zm0 0"/><path d="m368 120h16v16h-16zm0 0"/><path d="m400 120h16v16h-16zm0 0"/><path d="m304 152h16v16h-16zm0 0"/><path d="m336 152h16v16h-16zm0 0"/><path d="m368 152h16v16h-16zm0 0"/><path d="m400 152h16v16h-16zm0 0"/><path d="m304 184h16v16h-16zm0 0"/><path d="m336 184h16v16h-16zm0 0"/><path d="m368 184h16v16h-16zm0 0"/><path d="m400 184h16v16h-16zm0 0"/><path d="m304 216h16v16h-16zm0 0"/><path d="m336 216h16v16h-16zm0 0"/><path d="m368 216h16v16h-16zm0 0"/><path d="m400 216h16v16h-16zm0 0"/><path d="m304 248h16v16h-16zm0 0"/><path d="m336 248h16v16h-16zm0 0"/><path d="m368 248h16v16h-16zm0 0"/><path d="m400 248h16v16h-16zm0 0"/><path d="m304 280h16v16h-16zm0 0"/><path d="m336 280h16v16h-16zm0 0"/><path d="m368 280h16v16h-16zm0 0"/><path d="m400 280h16v16h-16zm0 0"/><path d="m64 272h16v16h-16zm0 0"/><path d="m96 272h16v16h-16zm0 0"/><path d="m128 272h16v16h-16zm0 0"/><path d="m96 240h16v16h-16zm0 0"/><path d="m128 240h16v16h-16zm0 0"/><path d="m160 272h16v16h-16zm0 0"/><path d="m64 304h16v16h-16zm0 0"/><path d="m96 304h16v16h-16zm0 0"/><path d="m128 304h16v16h-16zm0 0"/><path d="m160 304h16v16h-16zm0 0"/><path d="m64 336h16v16h-16zm0 0"/><path d="m96 336h16v16h-16zm0 0"/><path d="m128 336h16v16h-16zm0 0"/><path d="m160 336h16v16h-16zm0 0"/><path d="m64 368h16v16h-16zm0 0"/><path d="m96 368h16v16h-16zm0 0"/><path d="m128 368h16v16h-16zm0 0"/><path d="m160 368h16v16h-16zm0 0"/><path d="m88 83.3125 34.34375 34.34375c3.128906 3.128906 8.183594 3.128906 11.3125 0l90.34375-90.34375v20.6875h16v-40c0-4.414062-3.574219-8-8-8h-40v16h20.6875l-84.6875 84.6875-34.34375-34.34375c-3.128906-3.128906-8.183594-3.128906-11.3125 0l-80 80 11.3125 11.3125zm0 0"/><path d="m200 80h16v56h-16zm0 0"/><path d="m200 152h16v16h-16zm0 0"/><path d="m160 120h16v48h-16zm0 0"/><path d="m160 184h16v16h-16zm0 0"/></g></svg>