<svg xmlns="http://www.w3.org/2000/svg" viewBox="0 0 818.46 820.42"><defs><style>.cls-1{fill:#ccd1d9;}.cls-2{fill:#ffeaa7;}.cls-3{fill:#fcd770;}.cls-4{fill:#ffc729;}.cls-5{fill:#b4dd7f;}.cls-6{fill:#cf9e76;}.cls-7{fill:#e6e9ed;}.cls-8{fill:#b27946;}.cls-9{fill:#656d78;}.cls-10{fill:#4fc1e9;}.cls-11{fill:#f0d0b4;}.cls-12{fill:#333;}</style></defs><title>pembinaan_masyarakat</title><g id="Layer_2" data-name="Layer 2"><g id="Layer_1-2" data-name="Layer 1"><path class="cls-1" d="M222,516.8a36.67,36.67,0,0,0,2.38-13.2V490.4A26.48,26.48,0,0,0,198,464H122.77a109.58,109.58,0,0,0-30.36,4.22V194.7L409.23,15.17,726.05,194.7V468.22A109.63,109.63,0,0,0,695.69,464H646.85a92.09,92.09,0,0,0-57.43-84.49v-.13a87,87,0,0,0-21.91-5.94l-13.07-1.85-11-32.87a66,66,0,0,0,37.36-59.53l4.49-4.49a74.72,74.72,0,0,0-52.8-127.52H497.15a74.65,74.65,0,0,0-74.72,74.71,26,26,0,0,0,.26,4.49H171.61V411.2H400a92.61,92.61,0,0,0-17.16,53.72V516.8H222Z"/><path class="cls-2" d="M486.19,338.72l-11,32.87-13.07,1.85a87.12,87.12,0,0,0-21.91,5.94,90.89,90.89,0,0,0-40.13,31.82H171.61V226.38H422.69a73.74,73.74,0,0,0,21.65,48.32l4.49,4.49a66.26,66.26,0,0,0,19.28,46.73Z"/><path class="cls-3" d="M528,450.8l13.2,66H488.43l13.21-66Z"/><path class="cls-4" d="M541.24,424.4,528,450.8h-26.4l-13.21-26.4L514.84,398Z"/><path class="cls-5" d="M501.64,450.8l-13.21,66H382.83V464.92A92.61,92.61,0,0,1,400,411.2h.13a90.89,90.89,0,0,1,40.13-31.82l35,58.22,13.2-13.2Z"/><path class="cls-5" d="M594,503.6a36.46,36.46,0,0,0,2.38,13.2H541.24l-13.2-66,13.2-26.4,13.2,13.2,35-58.09A92.09,92.09,0,0,1,646.85,464H620.44A26.48,26.48,0,0,0,594,490.4Z"/><path class="cls-5" d="M475.23,371.59,514.84,398,488.43,424.4l-13.2,13.2-35-58.22a87.12,87.12,0,0,1,21.91-5.94Z"/><path class="cls-5" d="M589.42,379.38v.13l-35,58.09-13.2-13.2L514.84,398l39.6-26.4,13.07,1.85A87,87,0,0,1,589.42,379.38Z"/><path class="cls-6" d="M246.33,728h110.1V569.61H222.83c-5.67-32.21-6.73-36.31-7.79-40.4a38.08,38.08,0,0,0,7-12.41H596.42a38.24,38.24,0,0,0,7,12.41,263.13,263.13,0,0,0-7.78,40.4H462V728H581.77a104.81,104.81,0,0,0-14.13,52.8H250.82v-26.4a79.84,79.84,0,0,0-4.49-26.4Z"/><path class="cls-7" d="M356.43,569.61V728H246.33a79.26,79.26,0,0,0-74.72-52.81H147.32a76.73,76.73,0,0,0,73.14-52.8,74.38,74.38,0,0,0,4-24.29,257,257,0,0,0-1.59-28.51Z"/><path class="cls-7" d="M671.14,675.21A105.57,105.57,0,0,0,581.77,728H462V569.61h133.6A257,257,0,0,0,594,598.12a77.52,77.52,0,0,0,22.58,54.52A76.36,76.36,0,0,0,671.14,675.21Z"/><path class="cls-8" d="M726.05,688.42a39.18,39.18,0,0,0,26.4,37.22v81.58H567.64v-26.4a105.6,105.6,0,0,1,103.5-105.61h57.29a36.55,36.55,0,0,0-2.38,13.21Z"/><path class="cls-7" d="M805.26,688.42A39.55,39.55,0,0,1,765.65,728a36.49,36.49,0,0,1-13.2-2.38,39.18,39.18,0,0,1-26.4-37.22,36.55,36.55,0,0,1,2.38-13.21c-.13-.13,0-.13,0-.13a39.49,39.49,0,0,1,37.22-26.27,46.31,46.31,0,0,1,8.72.93A39.64,39.64,0,0,1,805.26,688.42Z"/><path class="cls-7" d="M765.65,648.81a39.49,39.49,0,0,0-37.22,26.27h-.13a31,31,0,0,1-28.65-30.89V565.12a53,53,0,0,0-11.75-33.27l-.13-.13a39,39,0,0,1-27.72,11.49H633.64a39.46,39.46,0,0,1-30.23-14,38.24,38.24,0,0,1-7-12.41A36.46,36.46,0,0,1,594,503.6V490.4a26.48,26.48,0,0,1,26.4-26.4h75.25a109.59,109.59,0,0,1,78.68,185.74,46.31,46.31,0,0,0-8.72-.93Z"/><path class="cls-9" d="M607.24,221.89a74.75,74.75,0,0,1-21.91,52.81l-4.49,4.49v-6.08A39.56,39.56,0,0,0,547.71,234l-7-1.19a46.45,46.45,0,0,1-29.83-18.08l-37.1,14.91a39.42,39.42,0,0,0-24.95,36.7v12.81l-4.49-4.49a73.74,73.74,0,0,1-21.65-48.32,26,26,0,0,1-.26-4.49,74.65,74.65,0,0,1,74.72-74.71h35.38a74.81,74.81,0,0,1,74.71,74.71Z"/><path class="cls-9" d="M224.42,503.6A36.67,36.67,0,0,1,222,516.8a38.08,38.08,0,0,1-7,12.41,39.43,39.43,0,0,1-30.23,14h-26.4a39.69,39.69,0,0,1-27.19-10.83l-12.41,37.23A26.6,26.6,0,0,0,92.41,596v2.24A26.48,26.48,0,0,0,100.2,617l18.61,18.61v8.58a31,31,0,0,1-31,31,32.28,32.28,0,0,1-16-4.35l-5.41-3.3A109.63,109.63,0,0,1,45.28,496.08a110.92,110.92,0,0,1,47.13-27.86A109.58,109.58,0,0,1,122.77,464H198a26.48,26.48,0,0,1,26.41,26.4Z"/><path class="cls-10" d="M250.82,780.82v26.4H13.2v-52.8a79,79,0,0,1,74.59-78.94,25.75,25.75,0,0,1,4.62-.27h79.2a79.08,79.08,0,0,1,79.21,79.21Z"/><path class="cls-11" d="M215,529.21c1.06,4.09,2.12,8.19,7.79,40.4a257,257,0,0,1,1.59,28.51,74.38,74.38,0,0,1-4,24.29,76.73,76.73,0,0,1-73.14,52.8H92.41a25.75,25.75,0,0,0-4.62.27v-.27a31,31,0,0,0,31-31v-8.58L100.2,617a26.48,26.48,0,0,1-7.79-18.75V596a26.6,26.6,0,0,1,26.4-26.4l12.41-37.23a39.69,39.69,0,0,0,27.19,10.83h26.4a39.43,39.43,0,0,0,30.23-14Z"/><path class="cls-11" d="M728.3,675.08h.13s-.13,0,0,.13H671.14a76.36,76.36,0,0,1-54.52-22.57A77.52,77.52,0,0,1,594,598.12a257,257,0,0,1,1.59-28.51,263.13,263.13,0,0,1,7.78-40.4,39.46,39.46,0,0,0,30.23,14h26.41a39,39,0,0,0,27.72-11.49l.13.13a53,53,0,0,1,11.75,33.27v79.07A31,31,0,0,0,728.3,675.08Z"/><path class="cls-11" d="M514.84,345.19a66.47,66.47,0,0,0,28.64-6.47l11,32.87L514.84,398l-39.61-26.4,11-32.87Z"/><path class="cls-11" d="M580.84,279.19a65.82,65.82,0,0,1-66,66l-28.65-6.47-18.08-12.8a66.26,66.26,0,0,1-19.28-46.73V266.38a39.42,39.42,0,0,1,24.95-36.7l37.1-14.91a46.45,46.45,0,0,0,29.83,18.08l7,1.19a39.56,39.56,0,0,1,33.13,39.07Z"/><path d="M795.46,644.89a121.94,121.94,0,0,0,23-71.31c0-52.34-33-97-79.21-114.65V217.35l59.5,33.72,13-23L409.23,0,6.69,228.1l13,23,59.5-33.72V458.93C33,476.55,0,521.23,0,573.58a123.28,123.28,0,0,0,50.19,98.74A92.47,92.47,0,0,0,0,754.42v66H264V794H554.44v26.4H765.65v-79.2a52.76,52.76,0,0,0,29.81-96.33Zm-3.4-71.31A95.76,95.76,0,0,1,769,636c-1.13-.07-2.22-.34-3.37-.34a52.73,52.73,0,0,0-44,23.71,17.72,17.72,0,0,1-8.81-15.13V565.08a66.21,66.21,0,0,0-8.67-32.63,52.4,52.4,0,0,0,8.67-28.85h-26.4a26.43,26.43,0,0,1-26.4,26.4H633.64a26.43,26.43,0,0,1-26.4-26.4V490.4a13.21,13.21,0,0,1,13.2-13.2h75.25a96.49,96.49,0,0,1,96.37,96.38ZM574.53,714.82h-99.3v-132H581.36c-.29,5.11-.52,10.22-.52,15.34a89.7,89.7,0,0,0,.75,11.06h-80v26.4h87.44a90.31,90.31,0,0,0,18.3,26.4H501.64v26.41h97.1A119.43,119.43,0,0,0,574.53,714.82ZM411,239.58A87.3,87.3,0,0,0,435,284l1,.95a79.18,79.18,0,0,0,34.39,59.68l-5,15.05-5,.72A105.35,105.35,0,0,0,393.88,398H184.81V239.58Zm24.61-17.73a61.54,61.54,0,0,1,61.48-61.47h35.47a61.1,61.1,0,0,1,55.2,88,52.5,52.5,0,0,0-37.87-27.37l-7-1.18a33.43,33.43,0,0,1-28-33.09H488.43a60.25,60.25,0,0,0,3.83,21.2l-23.44,9.38a52.43,52.43,0,0,0-28.63,27.71,61.18,61.18,0,0,1-4.56-23.23ZM519.88,437.6H509.79L504.5,427l10.34-10.34L525.17,427Zm-47.77-52.23,22,14.67L477.85,416.3l-17.36-28.93c1.2-.23,2.32-.68,3.54-.85Zm79.7,30.93L535.55,400l22-14.67,8.07,1.15c1.23.17,2.34.61,3.55.84Zm-13.08-50.09-23.89,15.92-23.9-15.94,3.53-10.57a77.7,77.7,0,0,0,20.34,2.77h.05a78.2,78.2,0,0,0,20.35-2.76ZM514.84,332A52.89,52.89,0,0,1,462,279.16V266.39a26.27,26.27,0,0,1,16.6-24.51l28.59-11.44a59.89,59.89,0,0,0,31.31,15.47l7.05,1.17a26.35,26.35,0,0,1,22.06,26.06v6A52.88,52.88,0,0,1,514.84,332Zm-79.5,64.78,37.27,62.11,12.19-12.2,3,6L477.61,503.6H396V464.94c0-28.65,15.73-54.25,39.31-68.17ZM512.46,464h4.77l7.92,39.6H504.54Zm39.6,39.6-10.19-50.94,3-6,12.19,12.2,37.35-62.24a78.39,78.39,0,0,1,37.9,54.16H620.44a39.65,39.65,0,0,0-39.6,39.6v13.2ZM671.11,662a63.93,63.93,0,0,1-63.87-63.86,244.49,244.49,0,0,1,4.57-46.6,52.36,52.36,0,0,0,21.83,4.86h26.41a52.16,52.16,0,0,0,23.56-5.8,39.5,39.5,0,0,1,2.84,14.47v79.11A43.56,43.56,0,0,0,690.36,662H673.25c-.73,0-1.43.1-2.14.11ZM105.61,202.4,409.23,30.34l303.62,172V452.13a124.52,124.52,0,0,0-17.16-1.33H659a104.87,104.87,0,0,0-89.65-90.4l-5-.71-5-15.05A79.25,79.25,0,0,0,593.76,285l1-1a87.88,87.88,0,0,0-62.15-150H497.09a88,88,0,0,0-87.43,79.2H158.41V424.4H377.92a104.14,104.14,0,0,0-8.29,40.54V503.6h-132V490.4A39.65,39.65,0,0,0,198,450.8H122.77a121.36,121.36,0,0,0-17.16,1.35Zm130.54,486h80.67V662H211.08a90.5,90.5,0,0,0,18.3-26.4h87.44v-26.4h-80a89.69,89.69,0,0,0,.76-11.06c0-5.12-.23-10.23-.52-15.34H343.22v132H255A92.62,92.62,0,0,0,236.15,688.42ZM109.48,607.61a13.31,13.31,0,0,1-3.87-9.33V596a13.21,13.21,0,0,1,13.2-13.2h9.52l10.11-30.32a52.47,52.47,0,0,0,20,3.92h26.4a52.41,52.41,0,0,0,21.84-4.86,244.4,244.4,0,0,1,4.56,46.6A63.92,63.92,0,0,1,147.35,662H128.19A43.84,43.84,0,0,0,132,644.19v-14Zm-83.08-34a96.48,96.48,0,0,1,96.37-96.38H198a13.21,13.21,0,0,1,13.2,13.2v13.2a26.43,26.43,0,0,1-26.4,26.4h-26.4A26.43,26.43,0,0,1,132,503.6h-26.4a52.46,52.46,0,0,0,10.69,31.82l-7.42,22.25A39.67,39.67,0,0,0,79.21,596v2.27a39.29,39.29,0,0,0,11.6,28l14.8,14.8v3.11a17.83,17.83,0,0,1-27,15.29l-5.43-3.26A96.86,96.86,0,0,1,26.4,573.58ZM237.62,794H211.21v-52.8h-26.4V794H79.21v-52.8H52.8V794H26.4v-39.6a66.08,66.08,0,0,1,66-66h79.2a66.08,66.08,0,0,1,66,66ZM263,741.22H369.63V556.41H234.25q-1.94-12.36-5-24.49c.4-.61.68-1.28,1.05-1.92H588.19c.37.62.65,1.31,1,1.92q-3.07,12.14-5,24.49H448.83V741.22H561.37a116.56,116.56,0,0,0-6.15,26.4H264v-13.2a92.78,92.78,0,0,0-1.06-13.2ZM739.25,794H633.64v-26.4h-26.4V794h-26.4v-13.2a92.51,92.51,0,0,1,92.41-92.4h39.6a52.63,52.63,0,0,0,26.4,45.46Zm26.4-79.2a26.41,26.41,0,1,1,26.41-26.4A26.43,26.43,0,0,1,765.65,714.82Z"/><rect class="cls-12" x="202.28" y="261.52" width="194.25" height="13.2" rx="6.6"/><rect class="cls-12" x="202.28" y="294.4" width="194.25" height="13.2" rx="6.6"/><rect class="cls-12" x="202.28" y="327.29" width="106.91" height="13.2" rx="6.6"/></g></g></svg>